# xmcd
#
# Track frame offsets: 
#        150
#        15691
#        38205
#        50186
#        64090
#        76669
#        90477
#        116458
#        139059
#        150533
#        161695
#        173366
#        189729
#        200626
#        213677
#
# Disc length: 3007 seconds
#
# Revision: 0
# Processed by: cddbd v1.5.2PL0 Copyright (c) Steve Scherf et al.
# Submitted via: ExactAudioCopyFreeDBPlugin 1.0
#
DISCID=c80bbd0f
DTITLE=B.B. King - Anthology
DYEAR=1900
DGENRE=Blues
TTITLE0=How blue can you get
TTITLE1=The thrill is gone
TTITLE2=You've been an angel
TTITLE3=Blind love
TTITLE4=Ten long years
TTITLE5=Three o'clock blues
TTITLE6=Guess who
TTITLE7=Every day I have the blues
TTITLE8=Please accept my love
TTITLE9=Days of old
TTITLE10=Shake it up and go
TTITLE11=The other night blues
TTITLE12=You don't know
TTITLE13=Please love me
TTITLE14=You know I go-for you
EXTD=
EXTT0=
EXTT1=
EXTT2=
EXTT3=
EXTT4=
EXTT5=
EXTT6=
EXTT7=
EXTT8=
EXTT9=
EXTT10=
EXTT11=
EXTT12=
EXTT13=
EXTT14=
PLAYORDER=
